<svg id="svg" version="1.1" width="512" height="512" xmlns="http://www.w3.org/2000/svg" xmlns:xlink="http://www.w3.org/1999/xlink" style="display: block;"><g id="svgg"><path id="path0" d="M243.359 2.054 C 174.323 12.317,125.341 64.853,121.083 133.203 C 120.682 139.648,120.344 175.263,120.333 212.347 L 120.313 279.771 197.461 279.468 C 272.108 279.175,274.888 279.112,283.203 277.513 C 416.404 251.900,441.320 76.008,320.353 15.255 C 299.576 4.820,264.828 -1.138,243.359 2.054 M319.531 146.875 L 319.531 200.000 306.250 200.000 L 292.969 200.000 292.969 146.875 L 292.969 93.750 306.250 93.750 L 319.531 93.750 319.531 146.875 M213.281 160.156 L 213.281 200.000 200.000 200.000 L 186.719 200.000 186.719 160.156 L 186.719 120.313 200.000 120.313 L 213.281 120.313 213.281 160.156 M80.469 146.875 L 80.469 160.156 93.750 160.156 L 107.031 160.156 107.031 146.875 L 107.031 133.594 93.750 133.594 L 80.469 133.594 80.469 146.875 M58.301 142.167 C 43.246 151.346,40.625 153.556,40.625 157.071 L 40.625 160.156 53.906 160.156 L 67.188 160.156 67.188 148.828 C 67.188 142.598,66.910 137.500,66.572 137.500 C 66.233 137.500,62.511 139.600,58.301 142.167 M266.406 173.438 L 266.406 200.000 253.125 200.000 L 239.844 200.000 239.844 173.438 L 239.844 146.875 253.125 146.875 L 266.406 146.875 266.406 173.438 M17.597 178.448 C 13.469 184.233,4.687 198.475,4.687 199.384 C 4.687 199.723,9.785 200.000,16.016 200.000 L 27.344 200.000 27.344 186.719 L 27.344 173.438 24.258 173.438 C 21.357 173.438,20.959 173.737,17.597 178.448 M40.625 186.719 L 40.625 200.000 53.906 200.000 L 67.188 200.000 67.188 186.719 L 67.188 173.438 53.906 173.438 L 40.625 173.438 40.625 186.719 M0.781 226.563 L 0.781 239.844 14.063 239.844 L 27.344 239.844 27.344 226.563 L 27.344 213.281 14.063 213.281 L 0.781 213.281 0.781 226.563 M40.625 226.563 L 40.625 239.844 53.906 239.844 L 67.188 239.844 67.188 226.563 L 67.188 213.281 53.906 213.281 L 40.625 213.281 40.625 226.563 M80.469 226.563 L 80.469 239.844 93.750 239.844 L 107.031 239.844 107.031 226.563 L 107.031 213.281 93.750 213.281 L 80.469 213.281 80.469 226.563 M0.781 266.406 L 0.781 279.688 14.063 279.688 L 27.344 279.688 27.344 266.406 L 27.344 253.125 14.063 253.125 L 0.781 253.125 0.781 266.406 M80.469 266.406 L 80.469 279.688 93.750 279.688 L 107.031 279.688 107.031 266.406 L 107.031 253.125 93.750 253.125 L 80.469 253.125 80.469 266.406 M0.781 306.250 L 0.781 319.531 14.063 319.531 L 27.344 319.531 27.344 306.250 L 27.344 292.969 14.063 292.969 L 0.781 292.969 0.781 306.250 M40.625 306.250 L 40.625 319.531 53.906 319.531 L 67.188 319.531 67.188 306.250 L 67.188 292.969 53.906 292.969 L 40.625 292.969 40.625 306.250 M80.469 306.250 L 80.469 319.531 93.750 319.531 L 107.031 319.531 107.031 306.250 L 107.031 292.969 93.750 292.969 L 80.469 292.969 80.469 306.250 M120.313 306.250 L 120.313 319.531 133.594 319.531 L 146.875 319.531 146.875 306.250 L 146.875 292.969 133.594 292.969 L 120.313 292.969 120.313 306.250 M200.000 306.250 L 200.000 319.531 213.281 319.531 L 226.563 319.531 226.563 306.250 L 226.563 292.969 213.281 292.969 L 200.000 292.969 200.000 306.250 M239.844 306.250 L 239.844 319.531 253.125 319.531 L 266.406 319.531 266.406 306.250 L 266.406 292.969 253.125 292.969 L 239.844 292.969 239.844 306.250 M40.625 346.094 L 40.625 359.375 53.906 359.375 L 67.188 359.375 67.188 346.094 L 67.188 332.813 53.906 332.813 L 40.625 332.813 40.625 346.094 M80.469 346.094 L 80.469 359.375 93.750 359.375 L 107.031 359.375 107.031 346.094 L 107.031 332.813 93.750 332.813 L 80.469 332.813 80.469 346.094 M120.313 346.094 L 120.313 359.375 133.594 359.375 L 146.875 359.375 146.875 346.094 L 146.875 332.813 133.594 332.813 L 120.313 332.813 120.313 346.094 M160.156 346.094 L 160.156 359.375 173.438 359.375 L 186.719 359.375 186.719 346.094 L 186.719 332.813 173.438 332.813 L 160.156 332.813 160.156 346.094 M200.000 346.094 L 200.000 359.375 213.281 359.375 L 226.563 359.375 226.563 346.094 L 226.563 332.813 213.281 332.813 L 200.000 332.813 200.000 346.094 M239.844 346.094 L 239.844 359.375 242.973 359.375 C 246.518 359.375,249.956 355.409,257.517 342.599 C 259.553 339.150,261.723 335.537,262.340 334.570 L 263.461 332.813 251.652 332.813 L 239.844 332.813 239.844 346.094 M40.625 375.756 C 40.625 379.767,42.583 381.316,64.258 394.446 L 67.188 396.221 67.188 384.439 L 67.188 372.656 53.906 372.656 L 40.625 372.656 40.625 375.756 M80.469 385.938 L 80.469 399.219 93.750 399.219 L 107.031 399.219 107.031 385.938 L 107.031 372.656 93.750 372.656 L 80.469 372.656 80.469 385.938 M160.156 385.938 L 160.156 399.219 173.438 399.219 L 186.719 399.219 186.719 385.938 L 186.719 372.656 173.438 372.656 L 160.156 372.656 160.156 385.938 M200.000 384.408 L 200.000 396.160 203.711 394.039 C 220.304 384.554,226.563 379.536,226.563 375.716 L 226.563 372.656 213.281 372.656 L 200.000 372.656 200.000 384.408 " stroke="none" fill="#0079d6" fill-rule="evenodd"></path><path id="path1" d="M120.494 138.281 C 120.494 139.785,120.655 140.400,120.851 139.648 C 121.048 138.896,121.048 137.666,120.851 136.914 C 120.655 136.162,120.494 136.777,120.494 138.281 " stroke="none" fill="#087dda" fill-rule="evenodd"></path><path id="path2" d="M254.883 1.361 C 257.783 1.511,262.529 1.511,265.430 1.361 C 268.330 1.210,265.957 1.087,260.156 1.087 C 254.355 1.087,251.982 1.210,254.883 1.361 M358.203 42.188 C 360.319 44.336,362.226 46.094,362.441 46.094 C 362.656 46.094,361.101 44.336,358.984 42.188 C 356.868 40.039,354.961 38.281,354.746 38.281 C 354.531 38.281,356.087 40.039,358.203 42.188 M160.895 41.992 L 158.203 44.922 161.133 42.230 C 162.744 40.749,164.063 39.430,164.063 39.300 C 164.063 38.703,163.401 39.265,160.895 41.992 M398.619 131.250 C 398.619 132.754,398.780 133.369,398.976 132.617 C 399.173 131.865,399.173 130.635,398.976 129.883 C 398.780 129.131,398.619 129.746,398.619 131.250 M120.525 132.813 C 120.525 134.746,120.678 135.537,120.864 134.570 C 121.050 133.604,121.050 132.021,120.864 131.055 C 120.678 130.088,120.525 130.879,120.525 132.813 M398.619 149.219 C 398.619 150.723,398.780 151.338,398.976 150.586 C 399.173 149.834,399.173 148.604,398.976 147.852 C 398.780 147.100,398.619 147.715,398.619 149.219 M362.060 234.570 L 359.766 237.109 362.305 234.815 C 363.701 233.553,364.844 232.410,364.844 232.276 C 364.844 231.672,364.199 232.204,362.060 234.570 M353.466 243.164 L 351.172 245.703 353.711 243.409 C 355.107 242.146,356.250 241.004,356.250 240.869 C 356.250 240.266,355.605 240.797,353.466 243.164 M268.164 279.445 C 268.916 279.641,270.146 279.641,270.898 279.445 C 271.650 279.248,271.035 279.088,269.531 279.088 C 268.027 279.088,267.412 279.248,268.164 279.445 " stroke="none" fill="#4099e2" fill-rule="evenodd"></path><path id="path3" d="M351.172 35.156 C 352.850 36.875,354.399 38.281,354.614 38.281 C 354.829 38.281,353.631 36.875,351.953 35.156 C 350.275 33.438,348.726 32.031,348.511 32.031 C 348.296 32.031,349.494 33.438,351.172 35.156 M166.760 36.133 L 163.672 39.453 166.992 36.365 C 168.818 34.666,170.313 33.172,170.313 33.045 C 170.313 32.453,169.632 33.045,166.760 36.133 M155.041 47.852 L 151.953 51.172 155.273 48.084 C 158.361 45.212,158.953 44.531,158.362 44.531 C 158.234 44.531,156.740 46.025,155.041 47.852 M364.844 48.828 C 366.301 50.332,367.670 51.563,367.885 51.563 C 368.099 51.563,367.083 50.332,365.625 48.828 C 364.167 47.324,362.799 46.094,362.584 46.094 C 362.369 46.094,363.386 47.324,364.844 48.828 M358.174 239.258 L 354.297 243.359 358.398 239.482 C 360.654 237.350,362.500 235.505,362.500 235.381 C 362.500 234.798,361.776 235.447,358.174 239.258 " stroke="none" fill="#f6faff" fill-rule="evenodd"></path></g></svg>