<?xml version="1.0" encoding="UTF-8"?>
<svg width="615px" height="121px" viewBox="0 0 615 121" version="1.1" xmlns="http://www.w3.org/2000/svg" xmlns:xlink="http://www.w3.org/1999/xlink">
    <!-- Generator: Sketch 64 (93537) - https://sketch.com -->
    <title>option_4.0_logo_web</title>
    <desc>Created with Sketch.</desc>
    <g id="Logo" stroke="none" stroke-width="1" fill="none" fill-rule="evenodd">
        <g id="Logo_option4.0_modern_colors" transform="translate(-204.000000, -323.000000)">
            <g id="option_4.0_logo_web" transform="translate(204.000000, 323.000000)">
                <g id="Group" transform="translate(140.175360, 14.929920)" fill="#15262C" fill-rule="nonzero">
                    <path d="M468.384768,21.067776 C464.154624,15.012864 457.43616,11.943936 448.229376,11.943936 C438.939648,11.943936 432.221184,15.012864 427.99104,21.067776 C423.760896,27.122688 421.687296,35.334144 421.687296,45.785088 C421.687296,56.236032 423.760896,64.530432 427.99104,70.585344 C432.221184,76.7232 438.939648,79.709184 448.229376,79.709184 C457.43616,79.709184 464.154624,76.640256 468.384768,70.585344 C472.614912,64.447488 474.771456,56.236032 474.771456,45.785088 C474.771456,35.334144 472.614912,27.122688 468.384768,21.067776 Z M456.523776,59.553792 C455.113728,62.788608 452.293632,64.447488 448.146432,64.447488 C443.916288,64.447488 441.096192,62.788608 439.686144,59.553792 C438.276096,56.318976 437.5296,51.674112 437.5296,45.702144 C437.5296,39.81312 438.276096,35.2512 439.686144,32.016384 C441.096192,28.781568 443.999232,27.205632 448.146432,27.205632 C452.293632,27.205632 455.113728,28.781568 456.523776,31.93344 C457.933824,35.085312 458.68032,39.730176 458.68032,45.702144 C458.68032,51.674112 458.016768,56.318976 456.523776,59.553792 Z" id="Shape"></path>
                    <path d="M53.001216,14.017536 C47.6928,11.031552 41.803776,9.455616 35.2512,9.455616 C28.781568,9.455616 22.975488,10.948608 17.667072,14.017536 C12.358656,17.00352 8.128512,21.233664 5.059584,26.625024 C1.990656,32.016384 0.41472,38.071296 0.41472,44.78976 C0.41472,51.508224 1.990656,57.64608 5.059584,63.03744 C8.128512,68.4288 12.358656,72.658944 17.667072,75.644928 C22.975488,78.630912 28.864512,80.206848 35.2512,80.206848 C41.720832,80.206848 47.526912,78.713856 52.835328,75.644928 C58.143744,72.658944 62.373888,68.4288 65.442816,63.03744 C68.511744,57.64608 70.08768,51.591168 70.08768,44.78976 C70.08768,37.988352 68.594688,31.93344 65.52576,26.625024 C62.456832,21.233664 58.309632,17.00352 53.001216,14.017536 Z M48.273408,59.222016 C45.038592,62.788608 40.725504,64.613376 35.2512,64.613376 C29.776896,64.613376 25.463808,62.788608 22.228992,59.222016 C18.994176,55.655424 17.41824,50.844672 17.41824,44.78976 C17.41824,38.651904 18.994176,33.841152 22.228992,30.27456 C25.463808,26.707968 29.776896,24.966144 35.2512,24.966144 C40.725504,24.966144 45.038592,26.790912 48.273408,30.357504 C51.508224,33.924096 53.08416,38.734848 53.08416,44.78976 C53.167104,50.844672 51.508224,55.655424 48.273408,59.222016 Z" id="Shape"></path>
                    <path d="M124.913664,27.952128 C121.347072,25.71264 117.36576,24.551424 112.886784,24.551424 C108.739584,24.551424 105.172992,25.463808 102.187008,27.37152 C99.201024,29.279232 97.04448,31.850496 95.634432,35.085312 L95.634432,25.214976 L78.962688,25.214976 L78.962688,105.670656 L95.634432,105.670656 L95.634432,69.838848 C96.961536,73.073664 99.201024,75.644928 102.187008,77.55264 C105.172992,79.460352 108.739584,80.372736 112.886784,80.372736 C117.36576,80.372736 121.430016,79.21152 124.913664,76.972032 C128.480256,74.732544 131.217408,71.497728 133.291008,67.267584 C135.364608,63.03744 136.359936,58.0608 136.359936,52.420608 C136.359936,46.697472 135.364608,41.720832 133.291008,37.573632 C131.217408,33.426432 128.397312,30.191616 124.913664,27.952128 Z M116.1216,62.208 C113.965056,64.530432 111.062016,65.691648 107.495424,65.691648 C104.011776,65.691648 101.108736,64.447488 98.869248,62.042112 C96.62976,59.636736 95.468544,56.40192 95.468544,52.337664 C95.468544,48.273408 96.62976,45.038592 98.869248,42.633216 C101.108736,40.22784 104.011776,39.066624 107.495424,39.066624 C111.062016,39.066624 113.965056,40.22784 116.1216,42.550272 C118.278144,44.872704 119.356416,48.10752 119.356416,52.337664 C119.356416,56.650752 118.278144,59.885568 116.1216,62.208 Z" id="Shape"></path>
                    <path d="M160.330752,64.115712 C159.418368,63.286272 159.003648,61.79328 159.003648,59.636736 L159.003648,39.315456 L169.952256,39.315456 L169.952256,25.214976 L159.003648,25.214976 L159.003648,11.860992 L142.331904,11.860992 L142.331904,25.214976 L142.331904,25.214976 L142.331904,39.232512 L142.331904,39.232512 L142.331904,59.222016 C142.331904,66.521088 144.073728,71.74656 147.64032,74.898432 C151.206912,78.050304 156.183552,79.62624 162.487296,79.62624 L170.0352,79.62624 L170.0352,65.359872 L164.726784,65.359872 C162.653184,65.359872 161.160192,64.945152 160.330752,64.115712 Z" id="Path"></path>
                    <path d="M300.340224,24.634368 C296.193024,24.634368 292.543488,25.546752 289.47456,27.454464 C286.405632,29.362176 284.0832,31.93344 282.507264,35.168256 L282.507264,25.214976 L265.83552,25.214976 L265.83552,79.709184 L282.507264,79.709184 L282.507264,50.844672 C282.507264,46.86336 283.502592,43.794432 285.493248,41.637888 C287.483904,39.481344 290.138112,38.403072 293.538816,38.403072 C296.690688,38.403072 299.261952,39.3984 301.169664,41.472 C303.077376,43.5456 304.072704,46.365696 304.072704,50.015232 L304.072704,79.709184 L320.744448,79.709184 L320.744448,48.10752 C320.744448,40.808448 318.91968,35.085312 315.270144,30.938112 C311.537664,26.707968 306.643968,24.634368 300.340224,24.634368 Z" id="Path"></path>
                    <path d="M244.933632,28.035072 C240.703488,25.795584 235.809792,24.634368 230.418432,24.634368 C225.027072,24.634368 220.133376,25.795584 215.903232,28.035072 C211.590144,30.27456 208.272384,33.509376 205.784064,37.73952 C203.378688,41.969664 202.134528,46.946304 202.134528,52.586496 C202.134528,58.226688 203.378688,63.203328 205.784064,67.433472 C208.18944,71.663616 211.590144,74.898432 215.903232,77.13792 C220.21632,79.377408 225.027072,80.538624 230.418432,80.538624 C235.809792,80.538624 240.620544,79.377408 244.933632,77.13792 C249.163776,74.898432 252.56448,71.663616 254.969856,67.433472 C257.375232,63.203328 258.619392,58.226688 258.619392,52.586496 C258.619392,46.946304 257.375232,41.969664 254.969856,37.73952 C252.56448,33.509376 249.24672,30.27456 244.933632,28.035072 Z M238.464,62.539776 C236.307456,64.779264 233.653248,65.94048 230.501376,65.94048 C227.349504,65.94048 224.612352,64.779264 222.455808,62.539776 C220.299264,60.300288 219.220992,56.982528 219.220992,52.586496 C219.220992,48.190464 220.299264,44.872704 222.455808,42.550272 C224.612352,40.22784 227.349504,39.066624 230.501376,39.066624 C233.653248,39.066624 236.3904,40.22784 238.464,42.550272 C240.620544,44.872704 241.698816,48.190464 241.698816,52.586496 C241.698816,56.982528 240.620544,60.300288 238.464,62.539776 Z" id="Shape"></path>
                    <rect id="Rectangle" x="178.246656" y="25.214976" width="16.671744" height="54.494208"></rect>
                    <circle id="Oval" cx="186.458112" cy="9.704448" r="9.12384"></circle>
                    <path d="M386.270208,12.192768 L368.934912,12.192768 L338.41152,53.996544 L338.41152,67.516416 L369.93024,67.516416 L369.93024,79.792128 L386.270208,79.792128 L386.270208,67.516416 L394.315776,67.516416 L394.315776,53.415936 L386.270208,53.415936 L386.270208,12.192768 L386.270208,12.192768 Z M371.257344,53.49888 L354.834432,53.49888 L371.257344,30.938112 L371.257344,53.49888 Z" id="Shape"></path>
                    <circle id="Oval" transform="translate(409.966231, 71.131796) rotate(-13.285796) translate(-409.966231, -71.131796) " cx="409.966231" cy="71.1317957" r="9.12350369"></circle>
                </g>
                <g id="Group">
                    <polygon id="Path" points="106.914816 70.253568 106.914816 70.253568 106.914816 70.170624"></polygon>
                    <path d="M93.146112,20.32128 C93.146112,20.736 93.229056,21.15072 93.394944,21.56544 C93.312,21.067776 93.229056,20.653056 93.146112,20.32128 Z" id="Path" fill="#1526FF" fill-rule="nonzero"></path>
                    <path d="M111.062016,63.203328 C109.403136,62.456832 108.407808,60.880896 108.407808,59.056128 C108.407808,57.314304 109.48608,55.738368 111.14496,55.074816 C114.711552,53.664768 116.785152,49.849344 115.955712,46.116864 C114.628608,39.564288 112.223232,33.343488 108.739584,27.620352 C106.748928,24.302592 102.684672,22.892544 99.035136,24.302592 C97.4592,24.8832 95.468544,24.46848 94.307328,23.22432 C93.809664,22.726656 93.560832,22.146048 93.312,21.56544 C93.146112,21.15072 93.146112,20.736 93.063168,20.32128 C93.063168,19.657728 93.146112,18.994176 93.394944,18.413568 C94.887936,14.92992 93.643776,10.78272 90.491904,8.70912 C89.99424,8.377344 89.413632,8.045568 88.833024,7.713792 C88.086528,7.299072 87.422976,6.801408 86.67648,6.386688 C82.11456,3.898368 77.13792,1.907712 72.16128,0.663552 C68.511744,-0.248832 64.69632,1.65888 63.203328,5.142528 C62.456832,6.801408 60.880896,7.796736 59.056128,7.796736 C57.314304,7.796736 55.655424,6.63552 55.074816,4.97664 C53.581824,1.410048 49.7664,-0.580608 46.03392,0.165888 C39.481344,1.492992 33.260544,3.981312 27.537408,7.46496 C24.219648,9.455616 22.892544,13.519872 24.219648,17.086464 C24.8832,18.745344 24.46848,20.570112 23.141376,21.814272 C21.897216,23.058432 19.989504,23.390208 18.330624,22.643712 C14.846976,21.15072 10.699776,22.39488 8.626176,25.546752 C6.884352,28.118016 5.39136,30.938112 4.064256,33.841152 C2.571264,37.158912 1.492992,40.476672 0.663552,43.794432 C-0.248832,47.526912 1.65888,51.342336 5.142528,52.918272 C6.801408,53.664768 7.796736,55.240704 7.796736,57.065472 C7.796736,58.807296 6.63552,60.383232 5.059584,61.046784 C1.410048,62.62272 -0.580608,66.3552 0.165888,70.170624 C0.41472,71.248896 0.663552,72.244224 0.912384,73.239552 C2.322432,78.630912 4.478976,83.77344 7.382016,88.584192 C9.372672,91.901952 13.436928,93.312 17.086464,91.901952 C18.6624,91.321344 20.653056,91.736064 21.814272,92.980224 C23.058432,94.224384 23.390208,96.132096 22.643712,97.790976 C21.15072,101.274624 22.39488,105.421824 25.546752,107.495424 C28.118016,109.154304 30.938112,110.73024 33.841152,112.057344 C35.417088,112.720896 36.993024,113.384448 38.56896,113.882112 C40.310784,114.46272 42.052608,115.043328 43.794432,115.458048 C47.526912,116.370432 51.342336,114.46272 52.918272,110.979072 C53.664768,109.320192 55.240704,108.324864 57.065472,108.324864 C58.807296,108.324864 60.466176,109.48608 61.046784,111.14496 C62.456832,114.711552 66.272256,116.785152 70.08768,115.955712 C76.640256,114.628608 82.861056,112.140288 88.584192,108.739584 C91.901952,106.748928 93.312,102.684672 91.901952,99.035136 C91.2384,97.376256 91.65312,95.551488 92.980224,94.307328 C94.224384,93.063168 96.132096,92.731392 97.790976,93.477888 C101.357568,94.97088 105.421824,93.72672 107.495424,90.574848 C109.237248,88.003584 110.73024,85.183488 112.057344,82.280448 C113.550336,79.045632 114.628608,75.644928 115.458048,72.327168 C116.370432,68.594688 114.545664,64.69632 111.062016,63.203328 Z M85.349376,69.590016 C85.0176,70.336512 84.60288,71.165952 84.18816,71.829504 C84.18816,71.912448 84.18816,71.912448 84.105216,71.995392 C78.216192,85.183488 55.738368,92.565504 48.93696,94.55616 C48.190464,94.722048 47.609856,94.14144 47.775744,93.477888 C47.775744,93.394944 47.775744,93.312 47.775744,93.312 L50.927616,86.26176 C50.927616,86.26176 50.927616,86.26176 50.927616,86.26176 C49.35168,85.84704 47.775744,85.349376 46.199808,84.60288 C31.269888,77.96736 24.634368,60.466176 31.269888,45.536256 C37.905408,30.606336 55.406592,23.970816 70.336512,30.606336 C71.912448,31.352832 73.40544,32.182272 74.732544,33.094656 C83.026944,38.651904 87.837696,48.024576 87.754752,57.729024 C87.837696,61.710336 87.0912,65.774592 85.349376,69.590016 Z" id="Shape" fill="#126DEB" fill-rule="nonzero"></path>
                </g>
            </g>
        </g>
    </g>
</svg>